<?xml version="1.0" encoding="utf-8"?>
<!-- Svg Vector Icons : http://www.onlinewebfonts.com/icon -->
<!DOCTYPE svg PUBLIC "-//W3C//DTD SVG 1.1//EN" "http://www.w3.org/Graphics/SVG/1.1/DTD/svg11.dtd">
<svg version="1.1" xmlns="http://www.w3.org/2000/svg" xmlns:xlink="http://www.w3.org/1999/xlink" x="0px" y="0px" viewBox="0 0 256 256" enable-background="new 0 0 256 256" xml:space="preserve">
<metadata> Svg Vector Icons : http://www.onlinewebfonts.com/icon </metadata>
<g><g><path fill="#000000" d="M128,10C62.8,10,10,62.8,10,128c0,65.2,52.8,118,118,118c65.2,0,118-52.8,118-118C246,62.8,193.2,10,128,10z M122.6,178.4h-12.8V132h-19v46.4H78V77.6h12.8v42.5h19V77.6h12.8V178.4L122.6,178.4z M170.8,178.4L152,124.3l2.4-3.5h14.3V89.4h-17.8v89h-12.8V77.6h34.5c2.6,0,4.7,0.8,6.4,2.5c1.7,1.7,2.5,3.9,2.5,6.4v36.7c0,3.4-1.5,9.1-11.5,9.1c-0.5,0-1.3,0-2.3-0.1c5.2,14.4,10.4,28.9,15.5,43.4l1,2.8L170.8,178.4L170.8,178.4z"/></g></g>
</svg>